<svg width="1440" height="1024" viewBox="0 0 1440 1024" fill="none" xmlns="http://www.w3.org/2000/svg" preserveAspectRatio="none">
<g filter="url(#filter0_f_57_95)">
<path d="M89.6171 47.6229C66.326 48.1391 47.2035 66.8775 46.4731 90.3358C36.3911 414.112 36.6153 604.848 46.4914 933.621C47.1967 957.103 66.3354 975.856 89.6191 976.389C604.931 988.188 889.197 990.171 1350.69 976.499C1373.93 975.811 1392.81 957.032 1393.49 933.706C1402.85 612.293 1404.17 421.998 1393.54 90.2963C1392.79 66.8766 1373.7 48.1416 1350.42 47.6178C863.593 36.6658 581.424 36.7234 89.6171 47.6229Z" stroke="#111110" stroke-width="52"/>
</g>
<path d="M1414 998H727.147H26V517.046V26H721.227H1414V514V998Z" stroke="url(#paint0_radial_57_95)" stroke-width="52"/>
<g filter="url(#filter1_di_57_95)">
<path d="M85 38C59.0426 38 38 59.0426 38 85V518.5V939C38 964.957 59.0426 986 85 986H722.5H1355C1380.96 986 1402 964.957 1402 939V513V85C1402 59.0426 1380.96 38 1355 38H723H85Z" stroke="url(#paint1_radial_57_95)" stroke-width="30" shape-rendering="crispEdges"/>
</g>
<defs>
<filter id="filter0_f_57_95" x="8.99768" y="9.42603" width="1422.02" height="1006.59" filterUnits="userSpaceOnUse" color-interpolation-filters="sRGB">
<feFlood flood-opacity="0" result="BackgroundImageFix"/>
<feBlend mode="normal" in="SourceGraphic" in2="BackgroundImageFix" result="shape"/>
<feGaussianBlur stdDeviation="2" result="effect1_foregroundBlur_57_95"/>
</filter>
<filter id="filter1_di_57_95" x="18.8" y="18.8" width="1402.4" height="986.4" filterUnits="userSpaceOnUse" color-interpolation-filters="sRGB">
<feFlood flood-opacity="0" result="BackgroundImageFix"/>
<feColorMatrix in="SourceAlpha" type="matrix" values="0 0 0 0 0 0 0 0 0 0 0 0 0 0 0 0 0 0 127 0" result="hardAlpha"/>
<feOffset/>
<feGaussianBlur stdDeviation="2.1"/>
<feComposite in2="hardAlpha" operator="out"/>
<feColorMatrix type="matrix" values="0 0 0 0 0.365385 0 0 0 0 0.365385 0 0 0 0 0.337278 0 0 0 1 0"/>
<feBlend mode="normal" in2="BackgroundImageFix" result="effect1_dropShadow_57_95"/>
<feBlend mode="normal" in="SourceGraphic" in2="effect1_dropShadow_57_95" result="shape"/>
<feColorMatrix in="SourceAlpha" type="matrix" values="0 0 0 0 0 0 0 0 0 0 0 0 0 0 0 0 0 0 127 0" result="hardAlpha"/>
<feOffset/>
<feGaussianBlur stdDeviation="2.1"/>
<feComposite in2="hardAlpha" operator="arithmetic" k2="-1" k3="1"/>
<feColorMatrix type="matrix" values="0 0 0 0 0.962225 0 0 0 0 1 0 0 0 0 0.831731 0 0 0 0.09 0"/>
<feBlend mode="normal" in2="shape" result="effect2_innerShadow_57_95"/>
</filter>
<radialGradient id="paint0_radial_57_95" cx="0" cy="0" r="1" gradientUnits="userSpaceOnUse" gradientTransform="translate(676.828 498) scale(767.112 537.559)">
<stop stop-color="#585D47"/>
<stop offset="1" stop-color="#1C1C1A"/>
</radialGradient>
<radialGradient id="paint1_radial_57_95" cx="0" cy="0" r="1" gradientUnits="userSpaceOnUse" gradientTransform="translate(720 512) rotate(90) scale(498.5 902.308)">
<stop stop-color="#DDF391"/>
<stop offset="0.495192" stop-color="#737D4E"/>
<stop offset="1" stop-color="#262624"/>
</radialGradient>
</defs>
</svg>
